<svg id="LOGO_L4L" data-name="LOGO L4L" xmlns="http://www.w3.org/2000/svg" xmlns:xlink="http://www.w3.org/1999/xlink" width="200" height="88.143" viewBox="0 0 200 88.143">
  <defs>
    <clipPath id="clip-path">
      <rect id="Rectangle_66" data-name="Rectangle 66" width="200" height="88.143" fill="none"/>
    </clipPath>
  </defs>
  <g id="Group_33" data-name="Group 33" clip-path="url(#clip-path)">
    <path id="Path_38" data-name="Path 38" d="M72.119,39.89a16.64,16.64,0,1,1,16.64,16.64,16.664,16.664,0,0,1-16.64-16.64" transform="translate(11.241 3.624)" fill="#02345e"/>
    <path id="Path_39" data-name="Path 39" d="M91.472,40.938V36.076H87.977v4.862H84.483a35.731,35.731,0,0,0,3.545-10.229l.151-.861H84.635l-.1.608a31.573,31.573,0,0,1-4.051,11.191l-.1.153v2.278h7.6v3.8h3.494v-3.8h2.076v-3.19H91.472" transform="translate(12.529 4.653)" fill="#fff"/>
    <path id="Path_40" data-name="Path 40" d="M0,51.143v-27.8l5.823-.81V51.143Z" transform="translate(0 3.512)" fill="#02345e"/>
    <path id="Path_41" data-name="Path 41" d="M8.719,42.407V37.849c0-4.051,1.923-8,8.912-8s8.913,3.951,8.913,8v4.558c0,4.05-1.923,8-8.913,8s-8.912-3.951-8.912-8m12,.151V37.646c0-1.874-.962-2.937-3.09-2.937s-3.088,1.063-3.088,2.937v4.912c0,1.874.962,2.937,3.088,2.937s3.09-1.063,3.09-2.937" transform="translate(1.359 4.653)" fill="#02345e"/>
    <path id="Path_42" data-name="Path 42" d="M32.592,42.457c0,2.025.861,2.937,3.19,2.937a15.307,15.307,0,0,0,4.051-.506l.709,4.862a20.33,20.33,0,0,1-4.76.608c-6.38,0-9.013-2.381-9.013-8V37.849c0-5.621,2.633-8,9.013-8a20.268,20.268,0,0,1,4.76.608l-.709,4.862a19.261,19.261,0,0,0-4.051-.507c-2.329,0-3.19.912-3.19,2.938Z" transform="translate(4.172 4.653)" fill="#02345e"/>
    <path id="Path_43" data-name="Path 43" d="M52.725,50l-.4-1.267A12.054,12.054,0,0,1,46.7,50.407c-3.646,0-5.164-2.633-5.164-5.976,0-3.95,1.823-5.57,5.874-5.57h4.254V37.343c0-2.026-.355-2.735-3.494-2.735a28.823,28.823,0,0,0-5.368.557L42.04,30.81a28.211,28.211,0,0,1,7.089-.962c6.837,0,8.356,2.076,8.356,7.546V50Zm-1.063-7.09H48.876c-1.266,0-1.721.3-1.721,1.418s.455,1.519,1.57,1.519a6.455,6.455,0,0,0,2.937-.709V42.913" transform="translate(6.474 4.653)" fill="#02345e"/>
    <path id="Path_44" data-name="Path 44" d="M59.54,51.143v-27.8l5.823-.81V51.143Z" transform="translate(9.28 3.512)" fill="#02345e"/>
    <path id="Path_45" data-name="Path 45" d="M108.451,51.143v-27.8l5.823-.81V51.143Z" transform="translate(16.904 3.512)" fill="#02345e"/>
    <path id="Path_46" data-name="Path 46" d="M117.169,42.407V37.849c0-4.051,1.925-8,8.914-8s8.912,3.951,8.912,8v4.558c0,4.05-1.925,8-8.912,8-7.04,0-8.914-3.951-8.914-8m11.952.151V37.646c0-1.874-.962-2.937-3.088-2.937s-3.09,1.063-3.09,2.937v4.912c0,1.874.962,2.937,3.09,2.937s3.088-1.063,3.088-2.937" transform="translate(18.263 4.653)" fill="#02345e"/>
    <path id="Path_47" data-name="Path 47" d="M141.044,42.457c0,2.025.861,2.937,3.19,2.937a15.307,15.307,0,0,0,4.051-.506l.709,4.862a20.329,20.329,0,0,1-4.76.608c-6.38,0-9.013-2.381-9.013-8V37.849c0-5.621,2.633-8,9.013-8a20.268,20.268,0,0,1,4.76.608l-.709,4.862a19.261,19.261,0,0,0-4.051-.507c-2.329,0-3.19.912-3.19,2.938Z" transform="translate(21.077 4.653)" fill="#02345e"/>
    <path id="Path_48" data-name="Path 48" d="M161.132,50l-.4-1.267a12.054,12.054,0,0,1-5.622,1.671c-3.646,0-5.164-2.633-5.164-5.976,0-3.95,1.823-5.57,5.874-5.57h4.254V37.343c0-2.026-.355-2.735-3.494-2.735a28.823,28.823,0,0,0-5.368.557l-.759-4.355a28.211,28.211,0,0,1,7.089-.962c6.837,0,8.356,2.076,8.356,7.546V50Zm-1.063-7.09h-2.786c-1.266,0-1.721.3-1.721,1.418s.455,1.519,1.57,1.519a6.455,6.455,0,0,0,2.937-.709V42.913" transform="translate(23.371 4.653)" fill="#02345e"/>
    <path id="Path_49" data-name="Path 49" d="M167.991,51.143v-27.8l5.823-.81V51.143Z" transform="translate(26.185 3.512)" fill="#02345e"/>
    <path id="Path_50" data-name="Path 50" d="M87.021,10.4A10.4,10.4,0,1,1,76.62,0a10.415,10.415,0,0,1,10.4,10.4" transform="translate(10.322 0)" fill="#ccc"/>
    <path id="Path_51" data-name="Path 51" d="M75.775,10.226a.577.577,0,1,1,.578-.578.588.588,0,0,1-.578.578M83.5,9.2H76.841a1.113,1.113,0,0,0-1.067-.711.881.881,0,0,0-.311.044L72.087,2.719a.4.4,0,0,0-.355-.178c-.089,0-.133,0-.178.044a.3.3,0,0,0-.178.222.392.392,0,0,0,.045.312L74.8,8.983a1.1,1.1,0,0,0,.044,1.377l-3.376,5.82a.411.411,0,0,0,.134.533.262.262,0,0,0,.177.045.548.548,0,0,0,.356-.178l3.376-5.82c.089,0,.133.045.222.045A1.092,1.092,0,0,0,76.8,10h6.62a.4.4,0,0,0,.4-.4.3.3,0,0,0-.311-.4" transform="translate(11.123 0.397)" fill="#fff"/>
    <path id="Path_52" data-name="Path 52" d="M74.825,55.354A13.106,13.106,0,1,1,61.718,42.248,13.125,13.125,0,0,1,74.825,55.354" transform="translate(7.577 6.586)" fill="#efb72c"/>
    <path id="Path_53" data-name="Path 53" d="M63.842,57.5a4.5,4.5,0,1,1,0-6.358,4.465,4.465,0,0,1,0,6.358M56.835,50.49a5.444,5.444,0,1,0,7.7,0,5.455,5.455,0,0,0-7.7,0" transform="translate(8.611 7.623)" fill="#fff"/>
    <path id="Path_54" data-name="Path 54" d="M56.464,57.366a.525.525,0,0,0-.692,0L54.43,58.706a.49.49,0,1,0,.692.692l1.341-1.341a.525.525,0,0,0,0-.692" transform="translate(8.464 8.922)" fill="#fff"/>
    <path id="Path_55" data-name="Path 55" d="M54.856,53.324a.49.49,0,0,0-.346-.129h-1.9a.476.476,0,1,0,0,.951h1.9a.48.48,0,0,0,.475-.476.49.49,0,0,0-.129-.346" transform="translate(8.125 8.292)" fill="#fff"/>
    <path id="Path_56" data-name="Path 56" d="M65.779,54.146h1.9a.479.479,0,0,0,.474-.476.445.445,0,0,0-.474-.475h-1.9a.481.481,0,0,0-.477.475.454.454,0,0,0,.477.476" transform="translate(10.179 8.292)" fill="#fff"/>
    <path id="Path_57" data-name="Path 57" d="M56.464,50.119a.525.525,0,0,0,0-.692l-1.341-1.341a.49.49,0,1,0-.692.692l1.341,1.341a.525.525,0,0,0,.692,0" transform="translate(8.464 7.475)" fill="#fff"/>
    <path id="Path_58" data-name="Path 58" d="M63.749,57.366a.525.525,0,0,0,0,.692L65.089,59.4a.49.49,0,1,0,.692-.692l-1.341-1.341a.525.525,0,0,0-.692,0" transform="translate(9.916 8.922)" fill="#fff"/>
    <path id="Path_59" data-name="Path 59" d="M60.491,59.4a.447.447,0,0,0-.476-.476.48.48,0,0,0-.475.476v1.9a.476.476,0,0,0,.951,0V59.4" transform="translate(9.28 9.184)" fill="#fff"/>
    <path id="Path_60" data-name="Path 60" d="M60.016,48.64a.48.48,0,0,0,.476-.476v-1.9a.447.447,0,0,0-.476-.476.48.48,0,0,0-.476.476v1.9a.48.48,0,0,0,.476.476" transform="translate(9.28 7.137)" fill="#fff"/>
    <path id="Path_61" data-name="Path 61" d="M63.753,50.119a.525.525,0,0,0,.692,0l1.341-1.341a.528.528,0,0,0,0-.692.528.528,0,0,0-.692,0l-1.341,1.341a.45.45,0,0,0,0,.692" transform="translate(9.912 7.475)" fill="#fff"/>
    <path id="Path_62" data-name="Path 62" d="M110.311,15.387A8.191,8.191,0,1,1,102.119,7.2a8.182,8.182,0,0,1,8.192,8.192" transform="translate(14.641 1.122)" fill="#99c5ea"/>
    <path id="Path_63" data-name="Path 63" d="M108.179,16.065a.313.313,0,0,0-.206-.082,1.425,1.425,0,0,1-1.155-.743,1.548,1.548,0,0,0-1.238-.783,1.46,1.46,0,0,0-1.237.783c-.329.413-.577.743-1.2.743a1.463,1.463,0,0,1-1.2-.743,1.548,1.548,0,0,0-1.237-.783,1.459,1.459,0,0,0-1.237.783c-.331.413-.578.743-1.2.743a1.466,1.466,0,0,1-1.2-.743,1.546,1.546,0,0,0-1.237-.783.288.288,0,1,0,0,.577c.331,0,.454.165.784.536a1.87,1.87,0,0,0,3.3,0c.289-.371.453-.536.784-.536s.453.165.784.578a1.87,1.87,0,0,0,3.3,0c.288-.372.453-.536.783-.536s.454.164.784.536a2.088,2.088,0,0,0,1.609.989.35.35,0,0,0,.329-.289.675.675,0,0,0-.124-.247" transform="translate(14.895 2.254)" fill="#fff"/>
    <path id="Path_64" data-name="Path 64" d="M108.179,13.71a.313.313,0,0,0-.206-.082,1.425,1.425,0,0,1-1.155-.743,1.548,1.548,0,0,0-1.238-.783,1.584,1.584,0,0,0-1.277.783,1.428,1.428,0,0,1-1.155.743c-.578,0-.867-.371-1.2-.743a1.548,1.548,0,0,0-1.237-.783,1.459,1.459,0,0,0-1.237.783c-.331.413-.578.743-1.2.743a1.466,1.466,0,0,1-1.2-.743,1.546,1.546,0,0,0-1.237-.783.288.288,0,1,0,0,.577c.331,0,.454.165.784.536a1.87,1.87,0,0,0,3.3,0c.289-.371.453-.536.784-.536s.453.165.784.536a1.87,1.87,0,0,0,3.3,0c.288-.371.453-.536.783-.536s.454.165.784.536a2.085,2.085,0,0,0,1.609.989.35.35,0,0,0,.329-.289.889.889,0,0,1-.124-.206" transform="translate(14.895 1.887)" fill="#fff"/>
    <path id="Path_65" data-name="Path 65" d="M118.226,64.606A11.468,11.468,0,1,1,106.76,53.139a11.493,11.493,0,0,1,11.466,11.467" transform="translate(14.853 8.283)" fill="#f3b528"/>
    <path id="Path_66" data-name="Path 66" d="M118.226,64.606A11.468,11.468,0,1,1,106.76,53.139a11.493,11.493,0,0,1,11.466,11.467" transform="translate(14.853 8.283)" fill="#aed3b3"/>
    <path id="Path_67" data-name="Path 67" d="M106.013,68.115h4.255v-4.67a.27.27,0,0,1,.1-.208.4.4,0,0,1,.207-.1h.572l-4.982-4.982-2.077,2.076a.317.317,0,0,1-.362.052.351.351,0,0,1-.208-.312v-.155h-.934v1.764a.272.272,0,0,1-.1.207l-1.35,1.35h.675a.273.273,0,0,1,.208.1.4.4,0,0,1,.1.208v4.67h1.4V65.78a.3.3,0,0,1,.312-.311H105.6a.334.334,0,0,1,.311.311Zm4.463.675h-4.67a.465.465,0,0,1-.467-.467v-2.18h-1.09v2.18a.466.466,0,0,1-.467.467h-1.816a.465.465,0,0,1-.467-.467V63.757h-.883a.462.462,0,0,1-.415-.259.5.5,0,0,1,.1-.519l1.61-1.609V59.554a.465.465,0,0,1,.467-.467h1.349a.313.313,0,0,1,.311.156l1.765-1.765c.051-.051.1-.1.155-.1s.052,0,.1-.052h.259a.739.739,0,0,1,.208.155l5.449,5.449a.5.5,0,0,1,.1.467.463.463,0,0,1-.416.26h-.778v4.566c.052.363-.156.571-.415.571" transform="translate(15.613 8.935)" fill="#fff"/>
    <path id="Path_68" data-name="Path 68" d="M104.91,63.4a.27.27,0,0,1-.208-.1.292.292,0,0,1,0-.467l.675-.726a.564.564,0,0,0-.259-.052.519.519,0,0,1-.26-.208c-.052-.207-.1-.259,1.038-1.453a.328.328,0,0,1,.467,0,.29.29,0,0,1,0,.467,9.269,9.269,0,0,1-.675.727l.312.1c.1.051.207.1.207.207a.341.341,0,0,1-.052.311l-1.037,1.142c-.052,0-.156.052-.208.052" transform="translate(16.302 9.398)" fill="#fff"/>
    <path id="Path_69" data-name="Path 69" d="M91.062,70.275a8.191,8.191,0,1,1-8.192-8.192,8.2,8.2,0,0,1,8.192,8.192" transform="translate(11.64 9.677)" fill="#db6e1e"/>
    <path id="Path_70" data-name="Path 70" d="M88.845,70.237l-.029-.029c-.03-.03-3.67-2.848-3.434-4.667a.106.106,0,0,0-.03-.088v-.03l.03-.029c.5-.587,1.261-1.409,1.673-1.5-.088-.088-.206-.176-.294-.265A5.212,5.212,0,0,0,85,65.306a.6.6,0,0,0,0,.322,2.463,2.463,0,0,0,.03.469,3.39,3.39,0,0,0-.587,1.674c0,.5.029.851.029,1.028v.147l.088.058a.284.284,0,0,1,.147.177c.059.235-.235.675-.528,1.056l-.029.029c-.294.383-.5.646-.587.764a1.243,1.243,0,0,0-.264.822.71.71,0,0,0,.7.616h.265a.225.225,0,0,1,.147.029c.292.089.322.206.2.646a.978.978,0,0,0,.03.763c.029.03.147.088.176.118l.059.029-.03.059c-.029.088-.147.176-.147.265-.029.235.177.381.294.5h.03c.059.059.117.088.147.147l.029.03v.029c-.029.059-.059.118-.088.176a1.114,1.114,0,0,0-.176.528c-.03,1.087.557,1.2,1,1.292.147-.088.294-.206.44-.294-.118-.03-.206-.059-.322-.088-.411-.088-.734-.147-.705-.911a.829.829,0,0,1,.118-.351.844.844,0,0,0,.117-.381.664.664,0,0,0-.322-.5c-.059-.029-.088-.088-.118-.118l-.029-.029a.063.063,0,0,1-.029-.088,3.976,3.976,0,0,1,.469-.5l-.206-.029A1.265,1.265,0,0,1,85,73.671c-.058-.088-.029-.235.03-.44.088-.353.235-.939-.47-1.115a.821.821,0,0,0-.264-.029H84.09c-.322-.059-.353-.118-.381-.294a.931.931,0,0,1,.176-.5q.177-.22.617-.792l.029-.03a2.013,2.013,0,0,0,.587-1.379.5.5,0,0,0-.206-.324l-.029-.029v-.029a8.923,8.923,0,0,1-.03-.911,3.065,3.065,0,0,1,.324-1.2c.587,1.644,2.729,3.434,3.287,3.9.029.058.117.088.176.147.294.2.47.851.617,2a1.111,1.111,0,0,0,.029.235,4.59,4.59,0,0,0,.264-.91c-.147-1-.381-1.5-.7-1.731" transform="translate(12.982 9.919)" fill="#fff"/>
    <path id="Path_71" data-name="Path 71" d="M76.776,74.439a1.283,1.283,0,0,0,.147-.381.4.4,0,0,1,.029-.147.749.749,0,0,1,.646-.558c.029,0,1.174-.147,1.615-.264.294-.088.587-.294.557-.969a.759.759,0,0,0-.147-.411V71.68c-.029-.029-.029-.059-.059-.088a.4.4,0,0,1,.118-.088.436.436,0,0,0,.235-.411.419.419,0,0,0-.059-.206v-.029l.089-.088a.894.894,0,0,0,.029-.617c-.088-.351-.059-.381.147-.439h.294a.623.623,0,0,0,.587-.5,1.009,1.009,0,0,0-.206-.646,5.812,5.812,0,0,1-.44-.587l-.029-.029c-.147-.206-.44-.587-.381-.763,0-.03.029-.059.088-.088l.088-.059v-.118c0-.147.029-.381.029-.793a3.454,3.454,0,0,0-.528-1.438l-.029-.029.294-.147a1.158,1.158,0,0,0-.353-.469c-.029-.03-.088-.059-.118-.089s-.058-.029-.058-.058a4.681,4.681,0,0,0-1.145-.676,3.765,3.765,0,0,0-.41.294,3.813,3.813,0,0,1,1.379.764.447.447,0,0,0,.118.117l-.147.411a3.043,3.043,0,0,1,.557,1.32v.676a.523.523,0,0,0-.176.294c-.088.381.235.792.469,1.114l.03.03c.235.294.381.5.469.616a.4.4,0,0,1,.118.322c0,.089-.03.118-.236.147h-.147a.487.487,0,0,0-.2.03c-.617.176-.5.7-.44.969.029.088.059.235.029.264a.335.335,0,0,1-.147.059l-.322.059.322.381a.125.125,0,0,1,.03.088c-.03.03-.059.059-.089.059a.6.6,0,0,0-.292.44.609.609,0,0,0,.117.322h.029l-.029.03c.029.088.088.147.088.235,0,.353-.059.469-.235.528a15.468,15.468,0,0,1-1.644.294,1.117,1.117,0,0,0-.969.881c0,.088-.029.117-.029.176s0,.059-.089.235l-.058.118-.324.469a3.4,3.4,0,0,0,.294.381l.44-.645Z" transform="translate(11.843 9.855)" fill="#fff"/>
  </g>
</svg>